<svg id="visual" viewBox="0 0 960 540" width="960" height="540" xmlns="http://www.w3.org/2000/svg" xmlns:xlink="http://www.w3.org/1999/xlink" version="1.1"><rect x="0" y="0" width="960" height="540" fill="#001220"></rect><path d="M0 229L16 243.5C32 258 64 287 96 290.2C128 293.3 160 270.7 192 249.7C224 228.7 256 209.3 288 225.7C320 242 352 294 384 312.5C416 331 448 316 480 315C512 314 544 327 576 334.5C608 342 640 344 672 329.3C704 314.7 736 283.3 768 276C800 268.7 832 285.3 864 290.7C896 296 928 290 944 287L960 284L960 0L944 0C928 0 896 0 864 0C832 0 800 0 768 0C736 0 704 0 672 0C640 0 608 0 576 0C544 0 512 0 480 0C448 0 416 0 384 0C352 0 320 0 288 0C256 0 224 0 192 0C160 0 128 0 96 0C64 0 32 0 16 0L0 0Z" fill="#fa7268"></path><path d="M0 235L16 218.8C32 202.7 64 170.3 96 157.3C128 144.3 160 150.7 192 152C224 153.3 256 149.7 288 165.2C320 180.7 352 215.3 384 230.3C416 245.3 448 240.7 480 232.5C512 224.3 544 212.7 576 208.7C608 204.7 640 208.3 672 202.7C704 197 736 182 768 171.5C800 161 832 155 864 151C896 147 928 145 944 144L960 143L960 0L944 0C928 0 896 0 864 0C832 0 800 0 768 0C736 0 704 0 672 0C640 0 608 0 576 0C544 0 512 0 480 0C448 0 416 0 384 0C352 0 320 0 288 0C256 0 224 0 192 0C160 0 128 0 96 0C64 0 32 0 16 0L0 0Z" fill="#e34c67"></path><path d="M0 114L16 118.7C32 123.3 64 132.7 96 128.7C128 124.7 160 107.3 192 102.8C224 98.3 256 106.7 288 115.7C320 124.7 352 134.3 384 132.8C416 131.3 448 118.7 480 108.8C512 99 544 92 576 89.8C608 87.7 640 90.3 672 88.7C704 87 736 81 768 84.2C800 87.3 832 99.7 864 110.3C896 121 928 130 944 134.5L960 139L960 0L944 0C928 0 896 0 864 0C832 0 800 0 768 0C736 0 704 0 672 0C640 0 608 0 576 0C544 0 512 0 480 0C448 0 416 0 384 0C352 0 320 0 288 0C256 0 224 0 192 0C160 0 128 0 96 0C64 0 32 0 16 0L0 0Z" fill="#c62368"></path></svg>